<svg width="48" height="48" xmlns="http://www.w3.org/2000/svg">

 <g>
  <title>background</title>
  <rect fill="none" id="canvas_background" height="402" width="582" y="-1" x="-1"/>
 </g>
 <g>
  <title>Layer 1</title>
  <path id="svg_1" d="m24,41.95l-2.05,-1.85q-5.3,-4.85 -8.75,-8.375q-3.45,-3.525 -5.5,-6.3t-2.875,-5.025q-0.825,-2.25 -0.825,-4.55q0,-4.5 3.025,-7.525q3.025,-3.025 7.475,-3.025q2.85,0 5.275,1.35q2.425,1.35 4.225,3.9q2.1,-2.7 4.45,-3.975t5.05,-1.275q4.45,0 7.475,3.025q3.025,3.025 3.025,7.525q0,2.3 -0.825,4.55t-2.875,5.025q-2.05,2.775 -5.5,6.3t-8.75,8.375l-2.05,1.85z"/>
 </g>
</svg>