<?xml version="1.0" encoding="UTF-8"?>
<!-- Generator: Blender, SVG Export for Grease Pencil - v1.0 -->
<!DOCTYPE svg PUBLIC "-//W3C//DTD SVG 1.1//EN" "http://www.w3.org/Graphics/SVG/1.1/DTD/svg11.dtd">
<svg version="1.0" x="0px" y="0px" xmlns="http://www.w3.org/2000/svg" width="653px" height="653px" viewBox="0 0 653 653">
	<g id="blender_frame_1">
		<g id="blender_object_GPencil">
			<!--Layer: Circle_Fills-->
			<g id="Circle_Fills">
				<polygon fill="#BAB5A7" stroke="none" fill-opacity="0.68707484" points="499.308868,510.462769 580.928223,355.756714 502.928192,164.956726 295.328217,109.756775 115.023468,205.433289 151.918549,409.109741 264.108917,530.862793" />
				<polygon fill="#BAB5A7" stroke="none" fill-opacity="0.68707484" points="151.328278,589.568909 205.952545,618.766174 264.108917,530.862793 151.918549,409.109741 85.918671,403.109741 16.979950,388.502380 34.959534,447.773132 64.156830,502.397400 103.449738,550.276001" />
				<polygon fill="#BAB5A7" stroke="none" fill-opacity="0.68707484" points="16.979950,388.502380 85.918671,403.109741 151.918549,409.109741 115.023468,205.433289 34.959534,205.952515 16.979950,265.223328 10.908997,326.862854" />
				<polygon fill="#BAB5A7" stroke="none" fill-opacity="0.68707484" points="64.156830,151.328308 34.959534,205.952515 115.023468,205.433289 295.328217,109.756775 265.223297,16.979919 205.952545,34.959534 151.328278,64.156860 103.449738,103.449707" />
				<polygon fill="#BAB5A7" stroke="none" fill-opacity="0.68707484" points="326.862885,10.908936 265.223297,16.979919 295.328217,109.756775 502.928192,164.956726 550.276001,103.449707 502.397491,64.156860 447.773224,34.959534 388.502472,16.979919" />
				<polygon fill="#BAB5A7" stroke="none" fill-opacity="0.68707484" points="589.568970,151.328308 550.276001,103.449707 502.928192,164.956726 580.928223,355.756714 642.816895,326.862854 636.745850,265.223328 618.766235,205.952515" />
				<polygon fill="#BAB5A7" stroke="none" fill-opacity="0.68707484" points="642.816895,326.862854 580.928223,355.756714 499.308868,510.462769 550.276001,550.276001 589.568970,502.397400 618.766235,447.773132 636.745850,388.502380" />
				<polygon fill="#BAB5A7" stroke="none" fill-opacity="0.68707484" points="326.862885,642.816772 388.502472,636.745789 447.773224,618.766174 502.397491,589.568909 550.276001,550.276001 499.308868,510.462769 264.108917,530.862793 205.952545,618.766174 265.223297,636.745789" />
			</g>
			<!--Layer: Circle_Lines-->
			<g id="Circle_Lines">
				<polyline stroke="#000000" stroke-opacity="1" fill="none" stroke-linecap="round" stroke-width="19" points="265.046051,637.637268 326.862885,643.725708 388.679779,637.637268 448.121063,619.605957 502.902435,590.324707 550.918823,550.918762 590.324829,502.902466 619.605957,448.121033 637.637451,388.679718 643.725830,326.862854 637.637451,265.045959 619.605957,205.604736 590.324829,150.823242 550.918823,102.807007 502.902435,63.401001 448.121063,34.119751 388.679779,16.088440 326.862885,10.000000 265.046051,16.088440 205.604706,34.119751 150.823334,63.401001 102.806976,102.807007 63.401093,150.823242 34.119751,205.604736 16.088440,265.045959 10.000000,326.862854 16.088440,388.679718 34.119751,448.121033 63.401093,502.902466 102.806976,550.918762 150.823334,590.324707 205.604706,619.605957 265.046051,637.637268" />
				<polyline stroke="#000000" stroke-opacity="1" fill="none" stroke-linecap="round" stroke-width="19" points="550.918823,550.918762 499.804962,510.990967" />
				<polyline stroke="#000000" stroke-opacity="1" fill="none" stroke-linecap="round" stroke-width="19" points="205.604706,619.605957 263.928436,531.449646 499.804962,510.990967 581.659180,355.839813" />
				<polyline stroke="#000000" stroke-opacity="1" fill="none" stroke-linecap="round" stroke-width="19" points="34.119751,205.604736 114.414032,205.083923 295.237518,109.132141 503.434662,164.490967 581.659180,355.839813" />
				<polyline stroke="#000000" stroke-opacity="1" fill="none" stroke-linecap="round" stroke-width="19" points="263.928436,531.449646 151.415253,409.346375 114.414032,205.083923" />
				<polyline stroke="#000000" stroke-opacity="1" fill="none" stroke-linecap="round" stroke-width="19" points="643.725830,326.862854 581.659180,355.839813" />
				<polyline stroke="#000000" stroke-opacity="1" fill="none" stroke-linecap="round" stroke-width="19" points="550.918823,102.807007 503.434662,164.490967" />
				<polyline stroke="#000000" stroke-opacity="1" fill="none" stroke-linecap="round" stroke-width="19" points="265.046051,16.088440 295.237518,109.132141" />
				<polyline stroke="#000000" stroke-opacity="1" fill="none" stroke-linecap="round" stroke-width="19" points="151.415253,409.346375 85.225494,403.329102" />
				<polyline stroke="#000000" stroke-opacity="1" fill="none" stroke-linecap="round" stroke-width="19" points="16.088440,388.679718 85.225494,403.329102" />
			</g>
		</g>
	</g>
</svg>
